<?xml version="1.0" encoding="UTF-8" standalone="no"?>
<!-- Created with Inkscape (http://www.inkscape.org/) -->

<svg
   xmlns:dc="http://purl.org/dc/elements/1.1/"
   xmlns:cc="http://creativecommons.org/ns#"
   xmlns:rdf="http://www.w3.org/1999/02/22-rdf-syntax-ns#"
   xmlns:svg="http://www.w3.org/2000/svg"
   xmlns="http://www.w3.org/2000/svg"
   xmlns:sodipodi="http://sodipodi.sourceforge.net/DTD/sodipodi-0.dtd"
   xmlns:inkscape="http://www.inkscape.org/namespaces/inkscape"
   id="svg2"
   version="1.1"
   inkscape:version="0.91 r13725"
   width="704.90161"
   height="635.46863"
   xml:space="preserve"
   sodipodi:docname="domino-correlation.svg"><metadata
     id="metadata8"><rdf:RDF><cc:Work
         rdf:about=""><dc:format>image/svg+xml</dc:format><dc:type
           rdf:resource="http://purl.org/dc/dcmitype/StillImage" /><dc:title></dc:title></cc:Work></rdf:RDF></metadata><defs
     id="defs6"><clipPath
       clipPathUnits="userSpaceOnUse"
       id="clipPath18"><path
         d="m 60.87273,27.50912 719.9999,0 0,540 -719.9999,0 0,-540 z"
         id="path20"
         inkscape:connector-curvature="0" /></clipPath><clipPath
       clipPathUnits="userSpaceOnUse"
       id="clipPath28"><path
         d="m 175.1674,550.0294 515.0869,0 0,-461.77193 -515.0869,0 0,461.77193 z"
         id="path30"
         inkscape:connector-curvature="0" /></clipPath><clipPath
       clipPathUnits="userSpaceOnUse"
       id="clipPath34"><path
         d="m 220.0717,132.6808 465.6483,0 0,407.899 -465.6483,0 0,-407.899 z"
         id="path36"
         inkscape:connector-curvature="0" /></clipPath><clipPath
       clipPathUnits="userSpaceOnUse"
       id="clipPath94"><path
         d="m 175.1674,550.0294 515.0869,0 0,-461.77193 -515.0869,0 0,461.77193 z"
         id="path96"
         inkscape:connector-curvature="0" /></clipPath><clipPath
       clipPathUnits="userSpaceOnUse"
       id="clipPath100"><path
         d="m 175.1674,88.25748 515.087,0 0,461.7719 -515.087,0 0,-461.7719 z"
         id="path102"
         inkscape:connector-curvature="0" /></clipPath><clipPath
       clipPathUnits="userSpaceOnUse"
       id="clipPath264"><path
         d="m 175.1674,550.0294 515.0869,0 0,-461.77193 -515.0869,0 0,461.77193 z"
         id="path266"
         inkscape:connector-curvature="0" /></clipPath><clipPath
       clipPathUnits="userSpaceOnUse"
       id="clipPath270"><path
         d="m 220.0717,132.6808 465.6483,0 0,407.899 -465.6483,0 0,-407.899 z"
         id="path272"
         inkscape:connector-curvature="0" /></clipPath><clipPath
       clipPathUnits="userSpaceOnUse"
       id="clipPath282"><path
         d="m 175.1674,550.0294 515.0869,0 0,-461.77193 -515.0869,0 0,461.77193 z"
         id="path284"
         inkscape:connector-curvature="0" /></clipPath><clipPath
       clipPathUnits="userSpaceOnUse"
       id="clipPath288"><path
         d="m 175.1674,88.25748 515.087,0 0,461.7719 -515.087,0 0,-461.7719 z"
         id="path290"
         inkscape:connector-curvature="0" /></clipPath><clipPath
       clipPathUnits="userSpaceOnUse"
       id="clipPath392"><path
         d="m 60.87273,27.50912 719.9999,0 0,540 -719.9999,0 0,-540 z"
         id="path394"
         inkscape:connector-curvature="0" /></clipPath></defs><sodipodi:namedview
     pagecolor="#ffffff"
     bordercolor="#666666"
     borderopacity="1"
     objecttolerance="10"
     gridtolerance="10"
     guidetolerance="10"
     inkscape:pageopacity="0"
     inkscape:pageshadow="2"
     inkscape:window-width="1920"
     inkscape:window-height="1026"
     id="namedview4"
     showgrid="false"
     inkscape:zoom="0.77772814"
     inkscape:cx="-44.391465"
     inkscape:cy="180.2589"
     inkscape:window-x="0"
     inkscape:window-y="0"
     inkscape:window-maximized="1"
     inkscape:current-layer="g10"
     showguides="true"
     inkscape:guide-bbox="true"
     fit-margin-top="0"
     fit-margin-left="0"
     fit-margin-right="0"
     fit-margin-bottom="0"><sodipodi:guide
       orientation="0,1"
       position="53.032375,669.37638"
       id="guide4229" /></sodipodi:namedview><g
     id="g10"
     inkscape:groupmode="layer"
     inkscape:label="domino-correlation-2"
     transform="matrix(1.25,0,0,-1.25,-170.3375,696.03491)"><rect
       style="color:#000000;clip-rule:nonzero;display:inline;overflow:visible;visibility:visible;opacity:0.703;isolation:auto;mix-blend-mode:normal;color-interpolation:sRGB;color-interpolation-filters:linearRGB;solid-color:#000000;solid-opacity:1;fill:#ffffff;fill-opacity:1;fill-rule:evenodd;stroke:#ffffff;stroke-width:6.4000001;stroke-linecap:butt;stroke-linejoin:miter;stroke-miterlimit:4;stroke-dasharray:none;stroke-dashoffset:27.60000038;stroke-opacity:1;color-rendering:auto;image-rendering:auto;shape-rendering:auto;text-rendering:auto;enable-background:accumulate"
       id="rect4268"
       width="539.00586"
       height="484.47263"
       x="149.75638"
       y="-545.39886"
       transform="scale(1,-1)" /><g
       id="g12" /><path
       d="m 233.64506,487.69948 c 0,2.02914 1.65759,3.67697 3.66844,3.67697 2.02444,0 3.66845,-1.64783 3.66845,-3.67697 0,-2.01553 -1.64401,-3.67698 -3.66845,-3.67698 -2.01085,0 -3.66844,1.66145 -3.66844,3.67698"
       style="fill:#000000;fill-opacity:1;stroke:#000000;stroke-width:1.02019656;stroke-linecap:round;stroke-linejoin:round;stroke-miterlimit:10;stroke-dasharray:none;stroke-opacity:1"
       id="path40"
       inkscape:connector-curvature="0" /><path
       d="m 233.64506,147.78371 c 0,2.02915 1.65759,3.67698 3.66844,3.67698 2.02444,0 3.66845,-1.64783 3.66845,-3.67698 0,-2.01554 -1.64401,-3.67698 -3.66845,-3.67698 -2.01085,0 -3.66844,1.66144 -3.66844,3.67698"
       style="fill:#000000;fill-opacity:1;stroke:#000000;stroke-width:1.02019656;stroke-linecap:round;stroke-linejoin:round;stroke-miterlimit:10;stroke-dasharray:none;stroke-opacity:1"
       id="path44"
       inkscape:connector-curvature="0" /><path
       d="m 664.80984,185.56121 c 0,2.01553 1.644,3.67697 3.66844,3.67697 2.01086,0 3.66845,-1.66144 3.66845,-3.67697 0,-2.02914 -1.65759,-3.67697 -3.66845,-3.67697 -2.02444,0 -3.66844,1.64783 -3.66844,3.67697"
       style="fill:#000000;fill-opacity:1;stroke:#000000;stroke-width:1.02019656;stroke-linecap:round;stroke-linejoin:round;stroke-miterlimit:10;stroke-dasharray:none;stroke-opacity:1"
       id="path48"
       inkscape:connector-curvature="0" /><path
       d="m 303.39989,468.82435 c 0,2.01552 1.64401,3.67697 3.66845,3.67697 2.01085,0 3.66845,-1.66145 3.66845,-3.67697 0,-2.02915 -1.6576,-3.67698 -3.66845,-3.67698 -2.02444,0 -3.66845,1.64783 -3.66845,3.67698"
       style="fill:#000000;fill-opacity:1;stroke:#000000;stroke-width:1.02019656;stroke-linecap:round;stroke-linejoin:round;stroke-miterlimit:10;stroke-dasharray:none;stroke-opacity:1"
       id="path52"
       inkscape:connector-curvature="0" /><path
       d="m 411.18429,147.78371 c 0,2.02915 1.64401,3.67698 3.66845,3.67698 2.01085,0 3.66845,-1.64783 3.66845,-3.67698 0,-2.01554 -1.6576,-3.67698 -3.66845,-3.67698 -2.02444,0 -3.66845,1.66144 -3.66845,3.67698"
       style="fill:#000000;fill-opacity:1;stroke:#000000;stroke-width:1.02019656;stroke-linecap:round;stroke-linejoin:round;stroke-miterlimit:10;stroke-dasharray:none;stroke-opacity:1"
       id="path56"
       inkscape:connector-curvature="0" /><path
       d="m 487.2706,279.97772 c 0,2.02914 1.64401,3.67697 3.66845,3.67697 2.01085,0 3.66844,-1.64783 3.66844,-3.67697 0,-2.01553 -1.65759,-3.67698 -3.66844,-3.67698 -2.02444,0 -3.66845,1.66145 -3.66845,3.67698"
       style="fill:#000000;fill-opacity:1;stroke:#000000;stroke-width:1.02019656;stroke-linecap:round;stroke-linejoin:round;stroke-miterlimit:10;stroke-dasharray:none;stroke-opacity:1"
       id="path60"
       inkscape:connector-curvature="0" /><path
       d="m 347.77451,449.9356 c 0,2.01552 1.6576,3.67697 3.66845,3.67697 2.02444,0 3.66845,-1.66145 3.66845,-3.67697 0,-2.02915 -1.64401,-3.67697 -3.66845,-3.67697 -2.01085,0 -3.66845,1.64782 -3.66845,3.67697"
       style="fill:#000000;fill-opacity:1;stroke:#000000;stroke-width:1.02019656;stroke-linecap:round;stroke-linejoin:round;stroke-miterlimit:10;stroke-dasharray:none;stroke-opacity:1"
       id="path64"
       inkscape:connector-curvature="0" /><path
       d="m 265.35673,525.47697 c 0,2.01553 1.64401,3.67698 3.66844,3.67698 2.01087,0 3.66846,-1.66145 3.66846,-3.67698 0,-2.02914 -1.65759,-3.67697 -3.66846,-3.67697 -2.02443,0 -3.66844,1.64783 -3.66844,3.67697"
       style="fill:#000000;fill-opacity:1;stroke:#000000;stroke-width:1.02019656;stroke-linecap:round;stroke-linejoin:round;stroke-miterlimit:10;stroke-dasharray:none;stroke-opacity:1"
       id="path68"
       inkscape:connector-curvature="0" /><path
       d="m 328.75294,393.28297 c 0,2.02915 1.65759,3.67697 3.66844,3.67697 2.02444,0 3.66845,-1.64782 3.66845,-3.67697 0,-2.02914 -1.64401,-3.67697 -3.66845,-3.67697 -2.01085,0 -3.66844,1.64783 -3.66844,3.67697"
       style="fill:#000000;fill-opacity:1;stroke:#000000;stroke-width:1.02019656;stroke-linecap:round;stroke-linejoin:round;stroke-miterlimit:10;stroke-dasharray:none;stroke-opacity:1"
       id="path72"
       inkscape:connector-curvature="0" /><path
       d="m 436.55093,166.67246 c 0,2.02913 1.644,3.67698 3.66844,3.67698 2.01085,0 3.66845,-1.64785 3.66845,-3.67698 0,-2.01552 -1.6576,-3.67697 -3.66845,-3.67697 -2.02444,0 -3.66844,1.66145 -3.66844,3.67697"
       style="fill:#000000;fill-opacity:1;stroke:#000000;stroke-width:1.02019656;stroke-linecap:round;stroke-linejoin:round;stroke-miterlimit:10;stroke-dasharray:none;stroke-opacity:1"
       id="path76"
       inkscape:connector-curvature="0" /><path
       d="m 303.39989,487.69948 c 0,2.02914 1.64401,3.67697 3.66845,3.67697 2.01085,0 3.66845,-1.64783 3.66845,-3.67697 0,-2.01553 -1.6576,-3.67698 -3.66845,-3.67698 -2.02444,0 -3.66845,1.66145 -3.66845,3.67698"
       style="fill:#000000;fill-opacity:1;stroke:#000000;stroke-width:1.02019656;stroke-linecap:round;stroke-linejoin:round;stroke-miterlimit:10;stroke-dasharray:none;stroke-opacity:1"
       id="path80"
       inkscape:connector-curvature="0" /><path
       d="m 544.33533,298.86647 c 0,2.01552 1.644,3.67697 3.66844,3.67697 2.01086,0 3.66845,-1.66145 3.66845,-3.67697 0,-2.02915 -1.65759,-3.67698 -3.66845,-3.67698 -2.02444,0 -3.66844,1.64783 -3.66844,3.67698"
       style="fill:#000000;fill-opacity:1;stroke:#000000;stroke-width:1.02019656;stroke-linecap:round;stroke-linejoin:round;stroke-miterlimit:10;stroke-dasharray:none;stroke-opacity:1"
       id="path84"
       inkscape:connector-curvature="0" /><path
       d="m 271.68821,468.82435 c 0,2.01552 1.65759,3.67697 3.66842,3.67697 2.02446,0 3.66847,-1.66145 3.66847,-3.67697 0,-2.02915 -1.64401,-3.67698 -3.66847,-3.67698 -2.01083,0 -3.66842,1.64783 -3.66842,3.67698"
       style="fill:#000000;fill-opacity:1;stroke:#000000;stroke-width:1.02019656;stroke-linecap:round;stroke-linejoin:round;stroke-miterlimit:10;stroke-dasharray:none;stroke-opacity:1"
       id="path88"
       inkscape:connector-curvature="0" /><path
       d="m 269.02517,132.68087 380.4314,0"
       style="fill:none;stroke:#000000;stroke-width:1.02019656;stroke-linecap:round;stroke-linejoin:round;stroke-miterlimit:10;stroke-dasharray:none;stroke-opacity:1"
       id="path106"
       inkscape:connector-curvature="0" /><path
       d="m 269.02517,132.68087 0,-9.80525"
       style="fill:none;stroke:#000000;stroke-width:1.02019656;stroke-linecap:round;stroke-linejoin:round;stroke-miterlimit:10;stroke-dasharray:none;stroke-opacity:1"
       id="path110"
       inkscape:connector-curvature="0" /><path
       d="m 332.42138,132.68087 0,-9.80525"
       style="fill:none;stroke:#000000;stroke-width:1.02019656;stroke-linecap:round;stroke-linejoin:round;stroke-miterlimit:10;stroke-dasharray:none;stroke-opacity:1"
       id="path114"
       inkscape:connector-curvature="0" /><path
       d="m 395.83117,132.68087 0,-9.80525"
       style="fill:none;stroke:#000000;stroke-width:1.02019656;stroke-linecap:round;stroke-linejoin:round;stroke-miterlimit:10;stroke-dasharray:none;stroke-opacity:1"
       id="path118"
       inkscape:connector-curvature="0" /><path
       d="m 459.24095,132.68087 0,-9.80525"
       style="fill:none;stroke:#000000;stroke-width:1.02019656;stroke-linecap:round;stroke-linejoin:round;stroke-miterlimit:10;stroke-dasharray:none;stroke-opacity:1"
       id="path122"
       inkscape:connector-curvature="0" /><path
       d="m 522.63714,132.68087 0,-9.80525"
       style="fill:none;stroke:#000000;stroke-width:1.02019656;stroke-linecap:round;stroke-linejoin:round;stroke-miterlimit:10;stroke-dasharray:none;stroke-opacity:1"
       id="path126"
       inkscape:connector-curvature="0" /><path
       d="m 586.04693,132.68087 0,-9.80525"
       style="fill:none;stroke:#000000;stroke-width:1.02019656;stroke-linecap:round;stroke-linejoin:round;stroke-miterlimit:10;stroke-dasharray:none;stroke-opacity:1"
       id="path130"
       inkscape:connector-curvature="0" /><path
       d="m 649.45657,132.68087 0,-9.80525"
       style="fill:none;stroke:#000000;stroke-width:1.02019656;stroke-linecap:round;stroke-linejoin:round;stroke-miterlimit:10;stroke-dasharray:none;stroke-opacity:1"
       id="path134"
       inkscape:connector-curvature="0" /><text
       transform="scale(0.99883987,-1.0011615)"
       style="font-style:normal;font-variant:normal;font-weight:normal;font-stretch:normal;font-size:16.32314491px;font-family:'FlamaBook';-inkscape-font-specification:'FlamaBook';writing-mode:lr-tb;fill:#000000;fill-opacity:1;fill-rule:nonzero;stroke:none"
       id="text138"
       x="260.2511"
       y="-97.268967"><tspan
         x="260.2511"
         y="-97.268967"
         sodipodi:role="line"
         id="tspan140">20</tspan></text>
<text
       transform="scale(0.99883987,-1.0011615)"
       style="font-style:normal;font-variant:normal;font-weight:normal;font-stretch:normal;font-size:16.32314491px;font-family:'FlamaBook';-inkscape-font-specification:'FlamaBook';writing-mode:lr-tb;fill:#000000;fill-opacity:1;fill-rule:nonzero;stroke:none"
       id="text144"
       x="323.73453"
       y="-97.268967"><tspan
         x="323.73453"
         y="-97.268967"
         sodipodi:role="line"
         id="tspan146">30</tspan></text>
<text
       transform="scale(0.99883987,-1.0011615)"
       style="font-style:normal;font-variant:normal;font-weight:normal;font-stretch:normal;font-size:16.32314491px;font-family:'FlamaBook';-inkscape-font-specification:'FlamaBook';writing-mode:lr-tb;fill:#000000;fill-opacity:1;fill-rule:nonzero;stroke:none"
       id="text150"
       x="387.21796"
       y="-97.268967"><tspan
         x="387.21796"
         y="-97.268967"
         sodipodi:role="line"
         id="tspan152">40</tspan></text>
<text
       transform="scale(0.99883987,-1.0011615)"
       style="font-style:normal;font-variant:normal;font-weight:normal;font-stretch:normal;font-size:16.32314491px;font-family:'FlamaBook';-inkscape-font-specification:'FlamaBook';writing-mode:lr-tb;fill:#000000;fill-opacity:1;fill-rule:nonzero;stroke:none"
       id="text156"
       x="450.68781"
       y="-97.268967"><tspan
         x="450.68781"
         y="-97.268967"
         sodipodi:role="line"
         id="tspan158">50</tspan></text>
<text
       transform="scale(0.99883987,-1.0011615)"
       style="font-style:normal;font-variant:normal;font-weight:normal;font-stretch:normal;font-size:16.32314491px;font-family:'FlamaBook';-inkscape-font-specification:'FlamaBook';writing-mode:lr-tb;fill:#000000;fill-opacity:1;fill-rule:nonzero;stroke:none"
       id="text162"
       x="514.1712"
       y="-97.268967"><tspan
         x="514.1712"
         y="-97.268967"
         sodipodi:role="line"
         id="tspan164">60</tspan></text>
<text
       transform="scale(0.99883987,-1.0011615)"
       style="font-style:normal;font-variant:normal;font-weight:normal;font-stretch:normal;font-size:16.32314491px;font-family:'FlamaBook';-inkscape-font-specification:'FlamaBook';writing-mode:lr-tb;fill:#000000;fill-opacity:1;fill-rule:nonzero;stroke:none"
       id="text168"
       x="577.65466"
       y="-97.268967"><tspan
         x="577.65466"
         y="-97.268967"
         sodipodi:role="line"
         id="tspan170">70</tspan></text>
<text
       transform="scale(0.99883987,-1.0011615)"
       style="font-style:normal;font-variant:normal;font-weight:normal;font-stretch:normal;font-size:16.32314491px;font-family:'FlamaBook';-inkscape-font-specification:'FlamaBook';writing-mode:lr-tb;fill:#000000;fill-opacity:1;fill-rule:nonzero;stroke:none"
       id="text174"
       x="641.12451"
       y="-97.268967"><tspan
         x="641.12451"
         y="-97.268967"
         sodipodi:role="line"
         id="tspan176">80</tspan></text>
<path
       d="m 220.0718,204.43634 0,302.15189"
       style="fill:none;stroke:#000000;stroke-width:1.02019656;stroke-linecap:round;stroke-linejoin:round;stroke-miterlimit:10;stroke-dasharray:none;stroke-opacity:1"
       id="path180"
       inkscape:connector-curvature="0" /><path
       d="m 220.0718,204.43634 -9.78252,0"
       style="fill:none;stroke:#000000;stroke-width:1.02019656;stroke-linecap:round;stroke-linejoin:round;stroke-miterlimit:10;stroke-dasharray:none;stroke-opacity:1"
       id="path184"
       inkscape:connector-curvature="0" /><path
       d="m 220.0718,279.97772 -9.78252,0"
       style="fill:none;stroke:#000000;stroke-width:1.02019656;stroke-linecap:round;stroke-linejoin:round;stroke-miterlimit:10;stroke-dasharray:none;stroke-opacity:1"
       id="path188"
       inkscape:connector-curvature="0" /><path
       d="m 220.0718,355.51909 -9.78252,0"
       style="fill:none;stroke:#000000;stroke-width:1.02019656;stroke-linecap:round;stroke-linejoin:round;stroke-miterlimit:10;stroke-dasharray:none;stroke-opacity:1"
       id="path192"
       inkscape:connector-curvature="0" /><path
       d="m 220.0718,431.04685 -9.78252,0"
       style="fill:none;stroke:#000000;stroke-width:1.02019656;stroke-linecap:round;stroke-linejoin:round;stroke-miterlimit:10;stroke-dasharray:none;stroke-opacity:1"
       id="path196"
       inkscape:connector-curvature="0" /><path
       d="m 220.0718,506.58823 -9.78252,0"
       style="fill:none;stroke:#000000;stroke-width:1.02019656;stroke-linecap:round;stroke-linejoin:round;stroke-miterlimit:10;stroke-dasharray:none;stroke-opacity:1"
       id="path200"
       inkscape:connector-curvature="0" /><text
       transform="matrix(0,1.0011615,0.99883987,0,0,0)"
       style="font-style:normal;font-variant:normal;font-weight:normal;font-stretch:normal;font-size:16.32314491px;font-family:'FlamaBook';-inkscape-font-specification:'FlamaBook';writing-mode:lr-tb;fill:#000000;fill-opacity:1;fill-rule:nonzero;stroke:none"
       id="text204"
       x="199.66949"
       y="196.82208"><tspan
         x="199.66949"
         y="196.82208"
         id="tspan206"
         style="font-style:normal;font-variant:normal;font-weight:normal;font-stretch:normal;font-family:'FlamaBook';-inkscape-font-specification:'FlamaBook'">4</tspan></text>
<text
       transform="matrix(0,1.0011615,0.99883987,0,0,0)"
       style="font-style:normal;font-variant:normal;font-weight:normal;font-stretch:normal;font-size:16.32314491px;font-family:'FlamaBook';-inkscape-font-specification:'FlamaBook';writing-mode:lr-tb;fill:#000000;fill-opacity:1;fill-rule:nonzero;stroke:none"
       id="text210"
       x="275.10962"
       y="196.82208"><tspan
         x="275.10962"
         y="196.82208"
         id="tspan212"
         style="font-style:normal;font-variant:normal;font-weight:normal;font-stretch:normal;font-family:'FlamaBook';-inkscape-font-specification:'FlamaBook'">5</tspan></text>
<text
       transform="matrix(0,1.0011615,0.99883987,0,0,0)"
       style="font-style:normal;font-variant:normal;font-weight:normal;font-stretch:normal;font-size:16.32314491px;font-family:'FlamaBook';-inkscape-font-specification:'FlamaBook';writing-mode:lr-tb;fill:#000000;fill-opacity:1;fill-rule:nonzero;stroke:none"
       id="text216"
       x="350.56335"
       y="196.82208"><tspan
         x="350.56335"
         y="196.82208"
         id="tspan218"
         style="font-style:normal;font-variant:normal;font-weight:normal;font-stretch:normal;font-family:'FlamaBook';-inkscape-font-specification:'FlamaBook'">6</tspan></text>
<text
       transform="matrix(0,1.0011615,0.99883987,0,0,0)"
       style="font-style:normal;font-variant:normal;font-weight:normal;font-stretch:normal;font-size:16.32314491px;font-family:'FlamaBook';-inkscape-font-specification:'FlamaBook';writing-mode:lr-tb;fill:#000000;fill-opacity:1;fill-rule:nonzero;stroke:none"
       id="text222"
       x="426.01712"
       y="196.82208"><tspan
         x="426.01712"
         y="196.82208"
         id="tspan224"
         style="font-style:normal;font-variant:normal;font-weight:normal;font-stretch:normal;font-family:'FlamaBook';-inkscape-font-specification:'FlamaBook'">7</tspan></text>
<text
       transform="matrix(0,1.0011615,0.99883987,0,0,0)"
       style="font-style:normal;font-variant:normal;font-weight:normal;font-stretch:normal;font-size:16.32314491px;font-family:'FlamaBook';-inkscape-font-specification:'FlamaBook';writing-mode:lr-tb;fill:#000000;fill-opacity:1;fill-rule:nonzero;stroke:none"
       id="text228"
       x="501.45724"
       y="196.82208"><tspan
         x="501.45724"
         y="196.82208"
         id="tspan230"
         style="font-style:normal;font-variant:normal;font-weight:normal;font-stretch:normal;font-family:'FlamaBook';-inkscape-font-specification:'FlamaBook'">8</tspan></text>
<path
       d="m 220.0718,132.68087 465.64818,0 0,407.89893 -465.64818,0 0,-407.89893"
       style="fill:none;stroke:#000000;stroke-width:1.02019656;stroke-linecap:round;stroke-linejoin:round;stroke-miterlimit:10;stroke-dasharray:none;stroke-opacity:1"
       id="path234"
       inkscape:connector-curvature="0" /><path
       d="m 220.0718,336.28044 465.64818,0"
       style="fill:none;stroke:#000000;stroke-width:1.01999998;stroke-linecap:round;stroke-linejoin:round;stroke-miterlimit:10;stroke-dasharray:3.05999994, 3.05999994;stroke-dashoffset:0;stroke-opacity:1"
       id="path276"
       inkscape:connector-curvature="0"
       sodipodi:nodetypes="cc" /><g
       id="g278"><g
         id="g280"
         clip-path="url(#clipPath282)"><g
           id="g286"
           clip-path="url(#clipPath288)"><g
             id="g292"
             transform="matrix(2.134483,0,0,2.139445,-177.5682,-806.4552)"><text
               transform="matrix(1,0,0,-1,133.768,370.297)"
               style="font-variant:normal;font-weight:normal;font-size:9.96259975px;font-family:CMSLTT10;-inkscape-font-specification:CMSLTT10;writing-mode:lr-tb;fill:#000000;fill-opacity:1;fill-rule:nonzero;stroke:none"
               id="text294"><tspan
                 x="0"
                 y="0"
                 sodipodi:role="line"
                 id="tspan296">&gt;summary(regr)</tspan></text>
</g><g
             id="g298"
             transform="matrix(2.134483,0,0,2.139445,-177.5682,-806.4552)"><text
               transform="matrix(1,0,0,-1,133.768,348.38)"
               style="font-variant:normal;font-weight:normal;font-size:9.96259975px;font-family:CMTT10;-inkscape-font-specification:CMTT10;writing-mode:lr-tb;fill:#000000;fill-opacity:1;fill-rule:nonzero;stroke:none"
               id="text300"><tspan
                 x="0"
                 y="0"
                 sodipodi:role="line"
                 id="tspan302">Call:</tspan></text>
</g><g
             id="g304"
             transform="matrix(2.134483,0,0,2.139445,-177.5682,-806.4552)"><text
               transform="matrix(1,0,0,-1,133.768,336.424)"
               style="font-variant:normal;font-weight:normal;font-size:9.96259975px;font-family:CMTT10;-inkscape-font-specification:CMTT10;writing-mode:lr-tb;fill:#000000;fill-opacity:1;fill-rule:nonzero;stroke:none"
               id="text306"><tspan
                 x="0"
                 y="0"
                 sodipodi:role="line"
                 id="tspan308">lm(formula=groupactions$idx~groupactions$sum)</tspan></text>
</g><g
             id="g310"
             transform="matrix(2.134483,0,0,2.139445,-177.5682,-806.4552)"><text
               transform="matrix(1,0,0,-1,133.768,312.514)"
               style="font-variant:normal;font-weight:normal;font-size:9.96259975px;font-family:CMTT10;-inkscape-font-specification:CMTT10;writing-mode:lr-tb;fill:#000000;fill-opacity:1;fill-rule:nonzero;stroke:none"
               id="text312"><tspan
                 x="0"
                 y="0"
                 sodipodi:role="line"
                 id="tspan314">Residuals:</tspan></text>
</g><g
             id="g316"
             transform="matrix(2.134483,0,0,2.139445,-177.5682,-806.4552)"><text
               transform="matrix(1,0,0,-1,154.65,300.559)"
               style="font-variant:normal;font-weight:normal;font-size:9.96259975px;font-family:CMTT10;-inkscape-font-specification:CMTT10;writing-mode:lr-tb;fill:#000000;fill-opacity:1;fill-rule:nonzero;stroke:none"
               id="text318"><tspan
                 x="0"
                 y="0"
                 sodipodi:role="line"
                 id="tspan320">Min1QMedian3QMax</tspan></text>
</g><g
             id="g322"
             transform="matrix(2.134483,0,0,2.139445,-177.5682,-806.4552)"><text
               transform="matrix(1,0,0,-1,133.768,288.604)"
               style="font-variant:normal;font-weight:normal;font-size:9.96259975px;font-family:CMTT10;-inkscape-font-specification:CMTT10;writing-mode:lr-tb;fill:#000000;fill-opacity:1;fill-rule:nonzero;stroke:none"
               id="text324"><tspan
                 x="0"
                 y="0"
                 sodipodi:role="line"
                 id="tspan326">-3.77350.06920.72651.05201.4880</tspan></text>
</g><g
             id="g328"
             transform="matrix(2.134483,0,0,2.139445,-177.5682,-806.4552)"><text
               transform="matrix(1,0,0,-1,133.768,264.693)"
               style="font-variant:normal;font-weight:normal;font-size:9.96259975px;font-family:CMTT10;-inkscape-font-specification:CMTT10;writing-mode:lr-tb;fill:#000000;fill-opacity:1;fill-rule:nonzero;stroke:none"
               id="text330"><tspan
                 x="0"
                 y="0"
                 sodipodi:role="line"
                 id="tspan332">Coefficients:</tspan></text>
</g><g
             id="g334"
             transform="matrix(2.134483,0,0,2.139445,-177.5682,-806.4552)"><text
               transform="matrix(1,0,0,-1,222.515,252.738)"
               style="font-variant:normal;font-weight:normal;font-size:9.96259975px;font-family:CMTT10;-inkscape-font-specification:CMTT10;writing-mode:lr-tb;fill:#000000;fill-opacity:1;fill-rule:nonzero;stroke:none"
               id="text336"><tspan
                 x="0"
                 y="0"
                 sodipodi:role="line"
                 id="tspan338">EstimateStd.ErrortvaluePr(&gt;|t|)</tspan></text>
</g><g
             id="g340"
             transform="matrix(2.134483,0,0,2.139445,-177.5682,-806.4552)"><text
               transform="matrix(1,0,0,-1,133.768,240.783)"
               style="font-variant:normal;font-weight:normal;font-size:9.96259975px;font-family:CMTT10;-inkscape-font-specification:CMTT10;writing-mode:lr-tb;fill:#000000;fill-opacity:1;fill-rule:nonzero;stroke:none"
               id="text342"><tspan
                 x="0"
                 y="0"
                 sodipodi:role="line"
                 id="tspan344">(Intercept)7.808330.984707.937.1e-06***</tspan></text>
</g><g
             id="g346"
             transform="matrix(2.134483,0,0,2.139445,-177.5682,-806.4552)"><text
               transform="matrix(1,0,0,-1,133.768,228.828)"
               style="font-variant:normal;font-weight:normal;font-size:9.96259975px;font-family:CMTT10;-inkscape-font-specification:CMTT10;writing-mode:lr-tb;fill:#000000;fill-opacity:1;fill-rule:nonzero;stroke:none"
               id="text348"><tspan
                 x="0"
                 y="0"
                 sodipodi:role="line"
                 id="tspan350">groupactions$sum-0.052320.02356-2.220.0483*</tspan></text>
</g><g
             id="g352"
             transform="matrix(2.134483,0,0,2.139445,-177.5682,-806.4552)"><text
               transform="matrix(1,0,0,-1,133.768,216.873)"
               style="font-variant:normal;font-weight:normal;font-size:9.96259975px;font-family:CMTT10;-inkscape-font-specification:CMTT10;writing-mode:lr-tb;fill:#000000;fill-opacity:1;fill-rule:nonzero;stroke:none"
               id="text354"><tspan
                 x="0"
                 y="0"
                 sodipodi:role="line"
                 id="tspan356">---</tspan></text>
</g><g
             id="g358"
             transform="matrix(2.134483,0,0,2.139445,-177.5682,-806.4552)"><text
               transform="matrix(1,0,0,-1,133.768,204.918)"
               style="font-variant:normal;font-weight:normal;font-size:9.96259975px;font-family:CMTT10;-inkscape-font-specification:CMTT10;writing-mode:lr-tb;fill:#000000;fill-opacity:1;fill-rule:nonzero;stroke:none"
               id="text360"><tspan
                 x="0"
                 y="0"
                 sodipodi:role="line"
                 id="tspan362">Signif.codes:0‘***’0.001‘**’0.01‘*’0.05‘.’0.1‘’1</tspan></text>
</g><g
             id="g364"
             transform="matrix(2.134483,0,0,2.139445,-177.5682,-806.4552)"><text
               transform="matrix(1,0,0,-1,133.768,181.007)"
               style="font-variant:normal;font-weight:normal;font-size:9.96259975px;font-family:CMTT10;-inkscape-font-specification:CMTT10;writing-mode:lr-tb;fill:#000000;fill-opacity:1;fill-rule:nonzero;stroke:none"
               id="text366"><tspan
                 x="0"
                 y="0"
                 sodipodi:role="line"
                 id="tspan368">Residualstandarderror:1.687on11degreesoffreedom</tspan></text>
</g><g
             id="g370"
             transform="matrix(2.134483,0,0,2.139445,-177.5682,-806.4552)"><text
               transform="matrix(1,0,0,-1,133.768,169.052)"
               style="font-variant:normal;font-weight:normal;font-size:9.96259975px;font-family:CMTT10;-inkscape-font-specification:CMTT10;writing-mode:lr-tb;fill:#000000;fill-opacity:1;fill-rule:nonzero;stroke:none"
               id="text372"><tspan
                 x="0"
                 y="0"
                 sodipodi:role="line"
                 id="tspan374">MultipleR-squared:0.3094,AdjustedR-squared:0.2467</tspan></text>
</g><g
             id="g376"
             transform="matrix(2.134483,0,0,2.139445,-177.5682,-806.4552)"><text
               transform="matrix(1,0,0,-1,133.768,157.097)"
               style="font-variant:normal;font-weight:normal;font-size:9.96259975px;font-family:CMTT10;-inkscape-font-specification:CMTT10;writing-mode:lr-tb;fill:#000000;fill-opacity:1;fill-rule:nonzero;stroke:none"
               id="text378"><tspan
                 x="0"
                 y="0"
                 sodipodi:role="line"
                 id="tspan380">F-statistic:4.929on1and11DF,p-value:0.04835</tspan></text>
</g><g
             id="g382"
             transform="matrix(2.134483,0,0,2.139445,-177.5682,-806.4552)"><text
               transform="matrix(1,0,0,-1,300.643,89.36501)"
               style="font-variant:normal;font-weight:normal;font-size:9.96259975px;font-family:CMR10;-inkscape-font-specification:CMR10;writing-mode:lr-tb;fill:#000000;fill-opacity:1;fill-rule:nonzero;stroke:none"
               id="text384"><tspan
                 x="0"
                 y="0"
                 sodipodi:role="line"
                 id="tspan386">11</tspan></text>
</g></g></g></g><text
       id="text400"
       style="font-variant:normal;font-weight:normal;font-size:20px;font-family:'FlamaBook';-inkscape-font-specification:'FlamaBook';writing-mode:lr-tb;fill:#000000;fill-opacity:1;fill-rule:nonzero;stroke:none"
       transform="matrix(0,1,1,0,0,0)"
       x="184.6562"
       y="169.5882"><tspan
         id="tspan402"
         sodipodi:role="line"
         y="169.5882"
         x="184.6562"
         style="font-style:normal;font-variant:normal;font-weight:500;font-stretch:normal;font-family:FlamaBook;-inkscape-font-specification:'FlamaBook Medium'">anthropomorphic perception (score)</tspan></text>
<text
       id="text408"
       style="font-variant:normal;font-weight:normal;font-size:20px;font-family:'FlamaBook';-inkscape-font-specification:'FlamaBook';writing-mode:lr-tb;fill:#000000;fill-opacity:1;fill-rule:nonzero;stroke:none"
       transform="scale(1,-1)"
       x="337.97659"
       y="-69.385284"><tspan
         id="tspan410"
         sodipodi:role="line"
         y="-69.385284"
         x="337.97659"
         style="font-style:normal;font-variant:normal;font-weight:500;font-stretch:normal;font-family:FlamaBook;-inkscape-font-specification:'FlamaBook Medium'">count of engagement actions</tspan></text>
<flowRoot
       xml:space="preserve"
       id="flowRoot4640"
       style="font-style:normal;font-weight:normal;font-size:10px;line-height:125%;font-family:Sans;letter-spacing:0px;word-spacing:0px;fill:#000000;fill-opacity:1;stroke:none"
       transform="matrix(0.8,0,0,-0.8,150.9227,543.8373)"><flowRegion
         id="flowRegion4642"><rect
           id="rect4644"
           width="658.25739"
           height="49.096546"
           x="90.919533"
           y="523.24988" /></flowRegion><flowPara
         id="flowPara4646" /></flowRoot><path
       sodipodi:nodetypes="cc"
       inkscape:connector-curvature="0"
       id="path4163"
       style="fill:none;stroke:#000000;stroke-width:1.01999998;stroke-linecap:round;stroke-linejoin:round;stroke-miterlimit:10;stroke-dasharray:3.05999994, 3.05999994;stroke-dashoffset:0;stroke-opacity:1"
       d="m 395.79843,132.8403 0,408.18704" /></g></svg>
